<?xml version="1.0" encoding="UTF-8"?>
<svg id="Layer_1" data-name="Layer 1" xmlns="http://www.w3.org/2000/svg" viewBox="0 0 510.24 543.03">
  <defs>
    <style>
      .cls-1, .cls-2, .cls-3, .cls-4, .cls-5, .cls-6, .cls-7, .cls-8, .cls-9, .cls-10, .cls-11, .cls-12, .cls-13, .cls-14, .cls-15 {
        stroke-miterlimit: 10;
      }

      .cls-1, .cls-2, .cls-16, .cls-4, .cls-5, .cls-6, .cls-7, .cls-8, .cls-17, .cls-9, .cls-10, .cls-11, .cls-12, .cls-14 {
        stroke: #231f20;
      }

      .cls-1, .cls-17, .cls-13 {
        fill: none;
      }

      .cls-2, .cls-15 {
        fill: #bed9f2;
      }

      .cls-18 {
        fill: #573911;
      }

      .cls-3 {
        stroke: #f2ccb8;
      }

      .cls-3, .cls-10 {
        fill: #fbaf32;
      }

      .cls-16 {
        fill: #347abe;
      }

      .cls-16, .cls-17 {
        stroke-linecap: round;
        stroke-linejoin: round;
        stroke-width: .5px;
      }

      .cls-19, .cls-20, .cls-21, .cls-14 {
        fill: #231f20;
      }

      .cls-4 {
        fill: #f05d81;
      }

      .cls-22 {
        fill: #aa1e23;
      }

      .cls-5 {
        fill: #ed1872;
      }

      .cls-6 {
        fill: #ffe098;
      }

      .cls-7 {
        fill: #aa1d4e;
      }

      .cls-20 {
        font-size: 12px;
      }

      .cls-20, .cls-21 {
        font-family: MyriadPro-Regular, 'Myriad Pro';
      }

      .cls-8 {
        fill: silver;
      }

      .cls-21 {
        font-size: 24px;
      }

      .cls-23 {
        letter-spacing: 0em;
      }

      .cls-9 {
        fill: #77afdf;
      }

      .cls-11 {
        fill: #fff;
      }

      .cls-12 {
        fill: #f48791;
      }

      .cls-24 {
        letter-spacing: -.01em;
      }

      .cls-13 {
        stroke: silver;
      }

      .cls-15 {
        stroke: #fff;
      }
    </style>
  </defs>
  <path class="cls-3" d="M250.73,269.35l-13.72-12.9-5.84-8.67-4.97-9.53-3.5-10.8-5.13-26.35-1.65-21.72-.68-15.66s4.97-8.99,5.91-8.4,9.14-8.93,9.14-8.93l2.84-5.03.69-2.21,6.46-6.93s11.85-12.22,11.48-15.33.16-10.01,1.53-10.13,7.67-8.36,7.67-8.36l16.04-11.3,14.98-.73,5.57,3.96s3.41,2.14,4.7,1.93,5.34.43,6.56,2.23,8.34,6.26,8.34,6.26l11.39,13.28,11.84,15.11,16.61,17.84s4.6,4.42,4.26,6.86.58,18.67.58,18.67l-1.73,18.7-3.11,22.14s-5.06,21.17-5.85,22.8-9.93,20.02-9.93,20.02l-15.03,15.1s-10.78,4.82-13.39,5.58c-.39.11-.86.26-1.4.43-3.04.96-7.96,2.69-9.61,3.69-.56.34-2.27.63-4.47.86-5.37.57-13.63.82-15.18.82-.44,0-1.19-.11-2.13-.28-3.75-.7-10.45-2.47-11.73-2.74-1.36-.29-5.71-2.34-8.73-3.72-.53-.24-1.01-.46-1.43-.65-2.86-1.26-6.33-4.19-6.33-4.19"/>
  <g>
    <path class="cls-18" d="M296.61,57.81c3.44,6.93,3.24,18.73,3.24,18.73,0,0-2.61,18.63-4.1,12.67s-19.8-1.86-19.8-1.86c0,0-27.16,16.77-24.55,26.45,2.61,9.69-19.75,23.85-18.26,27.58s-17.51,16.4-17.88,22.36c-.38,5.96,1.86,28.69,1.86,34.28s4.47,20.87,5.59,29.44,8.94,21.24,11.92,26.09c2.99,4.84,17.15,15.28,17.15,17.51s1.86,11.18-2.99,26.83c-4.84,15.66-5.21,4.1-15.27,20.87-10.07,16.77-3.36,12.3-13.05,21.24-9.69,8.95,14.54,27.95,14.54,27.95h-11.93l-37.64-9.69s22.74-2.61-5.96-3.72c-28.69-1.12-19.75-10.81-24.01-9.69-4.27,1.12,1.65-18.26,1.65-18.26,0,0,8.57-23.85,1.49-29.44s0-28.32,0-28.32l19.01-28.7s4.84-16.02.37-21.24,0-42.11,0-42.11l16.77-52.91s25.71-41,39.13-54.04c13.41-13.04,21.61-10.81,24.59-16.77s24.6-2.23,33.17,0c2.18.57,3.79,2.38,4.96,4.75Z"/>
    <path class="cls-1" d="M299.85,76.54s.2-11.8-3.24-18.73c-1.17-2.37-2.78-4.18-4.96-4.75-8.57-2.23-30.19-5.96-33.17,0s-11.18,3.73-24.59,16.77c-13.42,13.04-39.13,54.04-39.13,54.04l-16.77,52.91s-4.47,36.89,0,42.11-.37,21.24-.37,21.24l-19.01,28.7s-7.08,22.73,0,28.32-1.49,29.44-1.49,29.44c0,0-5.92,19.38-1.65,18.26,4.26-1.12-4.68,8.57,24.01,9.69,28.7,1.11,5.96,3.72,5.96,3.72l37.64,9.69h11.93s-24.23-19-14.54-27.95c9.69-8.94,2.98-4.47,13.05-21.24,10.06-16.77,10.43-5.21,15.27-20.87,4.85-15.65,2.99-24.59,2.99-26.83s-14.16-12.67-17.15-17.51c-2.98-4.85-10.8-17.52-11.92-26.09s-5.59-23.85-5.59-29.44-2.24-28.32-1.86-34.28c.37-5.96,19.37-18.63,17.88-22.36s20.87-17.89,18.26-27.58c-2.61-9.68,24.55-26.45,24.55-26.45,0,0,18.31-4.1,19.8,1.86s4.1-12.67,4.1-12.67Z"/>
  </g>
  <g>
    <path class="cls-18" d="M400.61,244.19c5.91,7.28,18.35,30.64,17.59,35.19s-1.36,15.47-5.61,22.75-7.43,18.81-7.43,18.81c0,0,.91,9.25,3.03,9.25s5.92,9.26,5.31,11.84c-.61,2.57-.15,8.64-3.19,12.43-3.03,3.8-11.83,8.95-12.89,8.95s-18.05,1.52-18.2,0c-.15-1.51-8.04,4.4-11.68,5.16-3.64.76-14.41,3.94-17.29,2.88s-12.74-3.03-13.2-4.4c-.45-1.36,10.01-4.55,12.89-9.55,2.89-5.01,3.19-18.91,2.28-19.32-.91-.4-10.01-13.75-11.23-13.14-1.21.6-14.56-17.24-13.83-18.94.73-1.71-3.41-26.06-2.2-26.54,1.22-.49,1.22-8.28,1.22-8.28,0,0,14.12-13.64,15.58-16.8,1.47-3.17,11.45-21.18,11.45-23.62s6.08-30.92,6.08-30.92l2.68-28.97-1.46-20.21-9.74-10.23-12.9-14.12-10.47-13.88s-8.28-11.2-9.25-11.2-12.66-10.47-14.61-9.25-7.79-2.87-7.79-2.87l1.89-1.19,1.44-6.64.23-13.41-2-9.83s10.71-5.18,15.75-3.96,16.33,4.74,16.14,6.26c-.2,1.52,20.93,13.55,20.64,15.21-.3,1.66,17.7,15.89,17.7,15.89,0,0,19.26,21.9,19.26,26.6s12.44,26.39,9.86,34.58-.15,26.4-1.51,31.55c-1.37,5.16-5.92,26.4-3.95,27.31s3.49,25.33,9.41,32.61Z"/>
    <path class="cls-1" d="M297.31,58.14s10.71-5.18,15.75-3.96,16.33,4.74,16.14,6.26c-.2,1.52,20.93,13.55,20.64,15.21-.3,1.66,17.7,15.89,17.7,15.89,0,0,19.26,21.9,19.26,26.6s12.44,26.39,9.86,34.58-.15,26.4-1.51,31.55c-1.37,5.16-5.92,26.4-3.95,27.31s3.49,25.33,9.41,32.61c5.91,7.28,18.35,30.64,17.59,35.19s-1.36,15.47-5.61,22.75-7.43,18.81-7.43,18.81c0,0,.91,9.25,3.03,9.25s5.92,9.26,5.31,11.84c-.61,2.57-.15,8.64-3.19,12.43-3.03,3.8-11.83,8.95-12.89,8.95s-18.05,1.52-18.2,0c-.15-1.51-8.04,4.4-11.68,5.16-3.64.76-14.41,3.94-17.29,2.88s-12.74-3.03-13.2-4.4c-.45-1.36,10.01-4.55,12.89-9.55,2.89-5.01,3.19-18.91,2.28-19.32-.91-.4-10.01-13.75-11.23-13.14-1.21.6-14.56-17.24-13.83-18.94.73-1.71-3.41-26.06-2.2-26.54,1.22-.49,1.22-8.28,1.22-8.28,0,0,14.12-13.64,15.58-16.8,1.47-3.17,11.45-21.18,11.45-23.62s6.08-30.92,6.08-30.92l2.68-28.97-1.46-20.21-9.74-10.23-12.9-14.12-10.47-13.88s-8.28-11.2-9.25-11.2-12.66-10.47-14.61-9.25-7.79-2.87-7.79-2.87l1.89-1.19,1.44-6.64.23-13.41-2-9.83Z"/>
  </g>
  <path class="cls-1" d="M214.64,180.83s-1.96-3.79-3.79-3.79-4.03-1.1-5.01,0-4.03,4.77-4.16,6.6-1.71,6.6-1.1,8.56,3.55,13.33,3.55,13.33c.73,1.34,6.97,10.39,7.34,10.39s4.16-.86,4.16-.86c0,0-6.6,3.91-6.36,5.26s-1.97,6.48-1.23,9.17,6.37,8.31,7.59,7.83,8.5-.74,8.8-1.83-.88-4.7-.98-5.07.86,1.16-1.71,1.28-4.65,1.22-5.87-1.22-2.93-3.91-1.83-6.24.86-4.4,2.45-4.52,2.18-.27,3.55-.24.33-4.66-.1-6.58-1.35-5.61-1.88-8.78-3.4-23.28-3.4-23.28Z"/>
  <path class="cls-1" d="M363.1,180.35s2.97-2.97,4.02-2.97,3.64-.1,4.69.86,4.5,6.22,4.4,8.61-.96,13.2-.96,13.2c0,0-1.82,4.59-2.3,5.93s-3.25,4.99-4.21,6.85-3.35,3.48-3.35,3.48l-4.11-.86,4.21,2.58s2.58,2.49,2.58,4.02.67,6.89,0,8.61-3.25,5.93-4.88,6.31-4.66,2.2-6.2,1.15-4.18-1.86-4.7-2.58,1.48-8.46,1.48-8.46l.33,3.77s1.43,1.05,2.2,1.15,4.4-1.43,4.4-1.43l1.91-4.21-.77-3.83s-.48-1.82-1.15-1.91-3.72-.1-3.72-.1l-.91-5.19,7.02-34.99Z"/>
  <g>
    <path class="cls-22" d="M313.45,248.68l-7.83-3.63s-5.28-1.64-6.92-1.64-6.56-.37-7.29-.37-7.1-.18-8.38,0c-1.27.18-5.38.55-6.42.91-1.05.37-11.25,4.74-11.25,4.74,0,0,5.1-7.47,6.37-8.2,1.28-.73,4.92-4.01,7.47-4.55,2.56-.55,5.29-1.83,6.75-1.1,1.45.73,3.09,1.1,3.09,1.1l3.65-1.32s3.64.15,4.19,0c.54-.14,5.46,2.67,5.46,2.67,0,0,4.01.39,4.38,1.16.36.77,4.55,4.59,4.73,5.5.17.88,1.9,4.5,2,4.73Z"/>
    <g>
      <line class="cls-1" x1="313.46" y1="248.69" x2="313.45" y2="248.68"/>
      <path class="cls-1" d="M313.45,248.68l-7.83-3.63s-5.28-1.64-6.92-1.64-6.56-.37-7.29-.37-7.1-.18-8.38,0c-1.27.18-5.38.55-6.42.91-1.05.37-11.25,4.74-11.25,4.74,0,0,5.1-7.47,6.37-8.2,1.28-.73,4.92-4.01,7.47-4.55,2.56-.55,5.29-1.83,6.75-1.1,1.45.73,3.09,1.1,3.09,1.1l3.65-1.32s3.64.15,4.19,0c.54-.14,5.46,2.67,5.46,2.67,0,0,4.01.39,4.38,1.16.36.77,4.55,4.59,4.73,5.5.17.88,1.9,4.5,2,4.73Z"/>
    </g>
  </g>
  <path class="cls-1" d="M277.57,253.79s15.85-.36,16.4,0,5.89.11,5.89.11l-5.34.26-16.94-.36Z"/>
  <polyline class="cls-1" points="276.61 207.91 275.52 209.81 275.07 212.83 275.84 216.24 277.57 217.26"/>
  <polyline class="cls-1" points="280.94 215.45 282.86 215.45 284.44 216.58 285.69 217.26"/>
  <polyline class="cls-1" points="292.69 217.26 294.72 216.36 297.32 216.36"/>
  <path class="cls-1" d="M302.62,209.47l.68,4.07s-.9,2.82-1.58,3.73"/>
  <g>
    <g>
      <path class="cls-19" d="M353.59,159.2c-.14-.14-1.24-1.22-2.27-1.95-1.1-.79-3.85-3.22-4.63-3.93-.79-.71-6.91-3.22-7.7-3.38-.78-.15-5.89-1.41-7.62-1.57-1.73-.15-6.67-.39-7.69-.39s-6.21-.78-7.47-.71c-1.25.08-5.1-1.88-6.67-2.2-1.57-.31-4.01-2.43-4.71-2.74-.71-.32-2.75-2.52-3.22-3.38-.47-.87,0-2.12,0-2.12l.62-1.42c.63-1.41,3.85,1.65,3.85,1.65l5.97,2.44,7.78,1.81s9.58,1.41,10.21,1.41,7.69,1.73,8.56,1.73,6.67,4.16,7.69,4.79c1.03.63,3.62,4.24,4.09,4.63.46.38,3.05,5.04,3.21,5.33Z"/>
      <path class="cls-19" d="M275.84,134.85s.37,2.7,0,3.56c-.38.87-1.03,1.57-2.22,2.7-1.18,1.13-3.29,2.7-5.66,3.67-2.38.97-4.43,1.35-6.86,1.94-2.43.6-7.39.98-9.93,1.25s-6.53.43-8.47,1.18c-1.95.76-6.64,2.7-6.64,2.7,0,0-3.51,1.89-4.48,2.81s-5.88,4.21-6.21,4.48c-.32.27,1.95-3.94,3.24-5.35,1.3-1.4,3.56-4.85,5.88-6.15,2.32-1.29,8.69-4.53,10.04-4.69,1.35-.17,8.75-1.41,10.53-1.51,1.78-.11,9.87-2.6,9.87-2.6,0,0,7.94-3.29,8.53-3.61.6-.33,2.38-.38,2.38-.38Z"/>
    </g>
    <g>
      <path class="cls-1" d="M353.6,159.21h-.01"/>
      <path class="cls-1" d="M302.23,135.41l-.62,1.42s-.47,1.25,0,2.12c.47.86,2.51,3.06,3.22,3.38.7.31,3.14,2.43,4.71,2.74,1.57.32,5.42,2.28,6.67,2.2,1.26-.07,6.44.71,7.47.71s5.96.24,7.69.39c1.73.16,6.84,1.42,7.62,1.57.79.16,6.91,2.67,7.7,3.38.78.71,3.53,3.14,4.63,3.93,1.03.73,2.13,1.81,2.27,1.95-.16-.29-2.75-4.95-3.21-5.33-.47-.39-3.06-4-4.09-4.63-1.02-.63-6.83-4.79-7.69-4.79s-7.93-1.73-8.56-1.73-10.21-1.41-10.21-1.41l-7.78-1.81-5.97-2.44s-3.22-3.06-3.85-1.65Z"/>
      <path class="cls-1" d="M275.84,134.85s.37,2.7,0,3.56c-.38.87-1.03,1.57-2.22,2.7-1.18,1.13-3.29,2.7-5.66,3.67-2.38.97-4.43,1.35-6.86,1.94-2.43.6-7.39.98-9.93,1.25s-6.53.43-8.47,1.18c-1.95.76-6.64,2.7-6.64,2.7,0,0-3.51,1.89-4.48,2.81s-5.88,4.21-6.21,4.48c-.32.27,1.95-3.94,3.24-5.35,1.3-1.4,3.56-4.85,5.88-6.15,2.32-1.29,8.69-4.53,10.04-4.69,1.35-.17,8.75-1.41,10.53-1.51,1.78-.11,9.87-2.6,9.87-2.6,0,0,7.94-3.29,8.53-3.61.6-.33,2.38-.38,2.38-.38Z"/>
    </g>
  </g>
  <path class="cls-14" d="M307.17,176.96s4.17-4.66,5.32-5.4,4.58-2.7,7.69-3.44,9.16-.9,10.88-.65,5.64.98,7.69,2.21,4.5,1.94,5.56,2.48,2.41.23,2.41.23l2.91-1.16s-.56,1.85-1.22,2.68-.99,1.32-2.21,2.11-3.07,1.45-3.07,1.45c0,0-2.21-.73-2.68-1.12s-2.18-1.75-2.97-2.28-2.21-1.06-3.44-1.66-3.4-1.19-3.4-1.19l-1.78.13s.5.07,1.19,1.55.93,1.52,1.09,3.44.56,3.3-.2,4.39-1.26,2.41-2.38,3.37-4.03,1.22-4.03,1.22c0,0-3.24-.33-3.83-.69s-2.91-2.18-2.91-2.18c0,0-1.16-.96-1.26-1.95s-.69-2.11-.63-3.27-.1-1.45.66-3.17.69-1.75.99-2.18-3.17,1.62-3.17,1.62c0,0-2.18,1.32-3.01,1.72s-4.2,1.73-4.2,1.73Z"/>
  <g>
    <path class="cls-19" d="M342.51,182.52l-3.84,5.02s-3.28,1.85-4.09,2.41c-.8.56-3.96.93-5.08.93s-4.21.31-5.88.31-2.91-.37-2.91-.37l-4.03-.93s-2.04-1.05-3.9-1.49c-1.86-.43-3.9-3.53-3.9-3.53l3.9,1.99,4.83,1.54,5.76.93s5.27-.18,6.44-.18,4.96-.99,6.44-2.29c1.49-1.31,2.29-1.06,2.79-1.92.5-.87,3.47-2.42,3.47-2.42Z"/>
    <path class="cls-1" d="M308.88,184.87s2.04,3.1,3.9,3.53c1.86.44,3.9,1.49,3.9,1.49l4.03.93s1.24.37,2.91.37,4.77-.31,5.88-.31,4.28-.37,5.08-.93c.81-.56,4.09-2.41,4.09-2.41l3.84-5.02s-2.97,1.55-3.47,2.42c-.5.86-1.3.61-2.79,1.92-1.48,1.3-5.26,2.29-6.44,2.29s-6.44.18-6.44.18l-5.76-.93-4.83-1.54-3.9-1.99Z"/>
  </g>
  <g>
    <path class="cls-19" d="M341.22,188.05l-4.09,3.84s-1.39,1.06-.98,2.53.65.98.9,3.03c.24,2.04.9,4,.9,5.72s-.41,4.27-.41,5.73.16,5.87.16,5.87l-.08,5.31s-.13.96-.64,1.06c-.52.1-1.06.33-1.57-.15-.51-.49-1.08-.11-1.18-1.13-.1-1.03-.49-1.85-.39-3.01.11-1.16-.12-.98.42-2.95.53-1.98.33-4.68.33-4.68l-.03-3.24.26-5.98-.72-1.98s-.72-.77-1.77-.72-1.16.11-1.93.31c-.77.21-3.11.51-3.57.41s-2.26-.43-2.26-.43l.26,2.85.02,4.57s-.33,4.24-.36,4.93c-.02.69-.3,5.5-.3,5.5l.15,6.27.08,5.36-.18,3.65s-.26,1.23-.8,1.31-1.41-.15-1.41-.15l-.88-1.47s.03-.64.03-1.18.03-6.37.03-6.37l.18-6.16.25-3.5-.54-1.69.57-4.27s-.03-.38.18-2.21c.2-1.82,0-4.85-.28-5.72-.29-.88.1-1.6-1.31-2.57-1.42-.98-2.62-1.9-3.14-2.26-.49-.34-2.74-3.04-2.94-3.28.08.06.77.55,2.77.85,2.12.33,6.94,1.15,6.94,1.15l4.51-.41s4.4-.82,5.22-.98c.81-.16,4.08-1.31,4.08-1.31l3.52-2.45Z"/>
    <g>
      <path class="cls-1" d="M314.18,191.2c.08.06.77.55,2.77.85,2.12.33,6.94,1.15,6.94,1.15l4.51-.41s4.4-.82,5.22-.98c.81-.16,4.08-1.31,4.08-1.31l3.52-2.45-4.09,3.84s-1.39,1.06-.98,2.53.65.98.9,3.03c.24,2.04.9,4,.9,5.72s-.41,4.27-.41,5.73.16,5.87.16,5.87l-.08,5.31s-.13.96-.64,1.06c-.52.1-1.06.33-1.57-.15-.51-.49-1.08-.11-1.18-1.13-.1-1.03-.49-1.85-.39-3.01.11-1.16-.12-.98.42-2.95.53-1.98.33-4.68.33-4.68l-.03-3.24.26-5.98-.72-1.98s-.72-.77-1.77-.72-1.16.11-1.93.31c-.77.21-3.11.51-3.57.41s-2.26-.43-2.26-.43l.26,2.85.02,4.57s-.33,4.24-.36,4.93c-.02.69-.3,5.5-.3,5.5l.15,6.27.08,5.36-.18,3.65s-.26,1.23-.8,1.31-1.41-.15-1.41-.15l-.88-1.47s.03-.64.03-1.18.03-6.37.03-6.37l.18-6.16.25-3.5-.54-1.69.57-4.27s-.03-.38.18-2.21c.2-1.82,0-4.85-.28-5.72-.29-.88.1-1.6-1.31-2.57-1.42-.98-2.62-1.9-3.14-2.26-.49-.34-2.74-3.04-2.94-3.28Z"/>
      <path class="cls-1" d="M314.18,191.2s-.01-.01-.01-.01"/>
    </g>
  </g>
  <g>
    <g>
      <path class="cls-19" d="M339.94,162.85c1.07.6,3.24,4.37,3.37,4.61-.21-.17-2.75-2.26-3.94-2.94-1.24-.71-4.85-2.71-5.95-3.33-1.09-.62-5.61-1.1-7.42-.91-1.81.2-4.9,1-5.95,1.24-1.04.24-5.61,2.86-6.37,3.48-.71.57-3.35,2.24-3.68,2.45.26-.35,2.41-3.12,3.34-4.43,1-1.41,3.34-1.88,4.48-2.5s2.71-1.19,4.42-1.62c1.72-.42,4.67-.33,6.19-.33s4.8.86,6.04,1.19,4.38,2.48,5.47,3.09Z"/>
      <path class="cls-19" d="M268.89,163.05c.94,1.32,3.09,4.09,3.35,4.44-.33-.21-2.97-1.88-3.68-2.46-.76-.62-5.33-3.23-6.38-3.47-1.04-.24-4.14-1.05-5.94-1.24-1.81-.19-6.33.29-7.43.9-1.09.62-4.71,2.62-5.94,3.34-1.19.68-3.73,2.77-3.94,2.94.13-.24,2.3-4.01,3.36-4.61,1.1-.62,4.24-2.76,5.48-3.09,1.23-.34,4.52-1.19,6.04-1.19s4.47-.1,6.19.33c1.71.43,3.28,1,4.42,1.62s3.47,1.08,4.47,2.49Z"/>
    </g>
    <g>
      <path class="cls-1" d="M343.32,167.47h-.01c-.13-.25-2.3-4.02-3.37-4.62-1.09-.61-4.23-2.76-5.47-3.09s-4.52-1.19-6.04-1.19-4.47-.09-6.19.33c-1.71.43-3.28,1-4.42,1.62s-3.48,1.09-4.48,2.5c-.93,1.31-3.08,4.08-3.34,4.43"/>
      <path class="cls-1" d="M309.97,167.47s0-.01.03-.02c.33-.21,2.97-1.88,3.68-2.45.76-.62,5.33-3.24,6.37-3.48,1.05-.24,4.14-1.04,5.95-1.24,1.81-.19,6.33.29,7.42.91,1.1.62,4.71,2.62,5.95,3.33,1.19.68,3.73,2.77,3.94,2.94"/>
      <path class="cls-1" d="M238.92,167.51h.01c.13-.25,2.3-4.02,3.36-4.62,1.1-.62,4.24-2.76,5.48-3.09,1.23-.34,4.52-1.19,6.04-1.19s4.47-.1,6.19.33c1.71.43,3.28,1,4.42,1.62s3.47,1.08,4.47,2.49c.94,1.32,3.09,4.09,3.35,4.44.02.01.03.02.03.02"/>
      <path class="cls-1" d="M272.24,167.49c-.33-.21-2.97-1.88-3.68-2.46-.76-.62-5.33-3.23-6.38-3.47-1.04-.24-4.14-1.05-5.94-1.24-1.81-.19-6.33.29-7.43.9-1.09.62-4.71,2.62-5.94,3.34-1.19.68-3.73,2.77-3.94,2.94"/>
    </g>
  </g>
  <g>
    <g>
      <path class="cls-19" d="M275.07,176.99s-3.37-1.33-4.2-1.72c-.82-.4-3-1.72-3-1.72,0,0-3.47-2.05-3.18-1.62.3.43.23.46.99,2.18s.6,2.02.67,3.17c.06,1.16-.53,2.28-.63,3.27-.1,1-1.26,1.95-1.26,1.95,0,0-2.31,1.82-2.9,2.18-.6.37-3.84.7-3.84.7,0,0-2.9-.27-4.03-1.22-1.12-.96-1.62-2.28-2.38-3.37s-.36-2.48-.19-4.4c.16-1.91.39-1.95,1.09-3.43.69-1.49,1.18-1.56,1.18-1.56l-1.78-.13s-2.18.6-3.4,1.19-2.64,1.12-3.44,1.65c-.79.53-2.51,1.89-2.97,2.28-.46.4-2.68,1.12-2.68,1.12,0,0-1.85-.66-3.07-1.45s-1.55-1.29-2.21-2.11l1.68-1.52s1.34.31,2.41-.23c1.06-.55,3.52-1.26,5.56-2.49,2.05-1.22,5.97-1.96,7.69-2.2,1.72-.25,7.77-.09,10.88.65s6.55,2.7,7.69,3.43c1.15.74,5.32,5.4,5.32,5.4Z"/>
      <path class="cls-19" d="M269.46,186.89l3.9-1.98s-2.05,3.1-3.9,3.53c-1.86.43-3.91,1.49-3.91,1.49l-4.02.92s-1.24.38-2.91.38-4.77-.31-5.89-.31-4.27-.38-5.07-.93c-.81-.56-4.09-2.42-4.09-2.42l-3.84-5.01s2.97,1.54,3.47,2.41c.49.87,1.3.62,2.78,1.92,1.49,1.3,5.27,2.29,6.44,2.29s6.45.19,6.45.19l5.75-.93,4.84-1.55Z"/>
      <path class="cls-19" d="M265.29,192.09c2-.31,2.69-.79,2.77-.85-.2.24-2.45,2.93-2.94,3.27-.52.36-1.72,1.29-3.14,2.26-1.41.98-1.03,1.7-1.31,2.57s-.49,3.91-.28,5.73.18,2.21.18,2.21l.56,4.26-.53,1.7.25,3.49.18,6.17c-.24.64-.4.66-.42.66l-1.38.22-.94-.53-.39-1.51.15-6.27s-.28-4.8-.31-5.49c-.02-.7-.36-4.94-.36-4.94l.03-4.57.26-2.85s-1.8.33-2.26.44c-.47.1-2.8-.21-3.57-.41-.77-.21-.88-.26-1.93-.31s-1.77.72-1.77.72l-.72,1.98.25,5.98-.02,3.24s-.21,2.69.33,4.67.31,1.8.41,2.96c.11,1.15-.28,1.97-.38,3l-.31,1.21-1.21.45s-1.03-.4-1.87-1.43l-.08-5.31s.16-4.42.16-5.88-.41-4.01-.41-5.73.65-3.67.9-5.72c.24-2.04.49-1.55.9-3.02s-.98-2.53-.98-2.53l-4.09-3.84,3.52,2.45s3.26,1.14,4.08,1.3c.82.17,5.22.98,5.22.98l4.51.41s4.82-.81,6.94-1.14Z"/>
    </g>
    <g>
      <path class="cls-1" d="M233.84,173.95c.66.82.99,1.32,2.21,2.11s3.07,1.45,3.07,1.45c0,0,2.22-.72,2.68-1.12.46-.39,2.18-1.75,2.97-2.28.8-.53,2.22-1.06,3.44-1.65s3.4-1.19,3.4-1.19l1.78.13s-.49.07-1.18,1.56c-.7,1.48-.93,1.52-1.09,3.43-.17,1.92-.57,3.31.19,4.4s1.26,2.41,2.38,3.37c1.13.95,4.03,1.22,4.03,1.22,0,0,3.24-.33,3.84-.7.59-.36,2.9-2.18,2.9-2.18,0,0,1.16-.95,1.26-1.95.1-.99.69-2.11.63-3.27-.07-1.15.09-1.45-.67-3.17s-.69-1.75-.99-2.18c-.29-.43,3.18,1.62,3.18,1.62,0,0,2.18,1.32,3,1.72.83.39,4.2,1.72,4.2,1.72,0,0-4.17-4.66-5.32-5.4-1.14-.73-4.58-2.69-7.69-3.43s-9.16-.9-10.88-.65c-1.72.24-5.64.98-7.69,2.2-2.04,1.23-4.5,1.94-5.56,2.49-1.07.54-2.41.23-2.41.23"/>
      <path class="cls-1" d="M273.36,184.91s-2.05,3.1-3.9,3.53c-1.86.43-3.91,1.49-3.91,1.49l-4.02.92s-1.24.38-2.91.38-4.77-.31-5.89-.31-4.27-.38-5.07-.93c-.81-.56-4.09-2.42-4.09-2.42l-3.84-5.01s2.97,1.54,3.47,2.41c.49.87,1.3.62,2.78,1.92,1.49,1.3,5.27,2.29,6.44,2.29s6.45.19,6.45.19l5.75-.93,4.84-1.55,3.9-1.98Z"/>
      <path class="cls-1" d="M268.07,191.23s0,.01-.01.01"/>
      <path class="cls-1" d="M261.03,222.9l-.18-6.17-.25-3.49.53-1.7-.56-4.26s.03-.39-.18-2.21,0-4.86.28-5.73-.1-1.59,1.31-2.57c1.42-.97,2.62-1.9,3.14-2.26.49-.34,2.74-3.03,2.94-3.27-.08.06-.77.54-2.77.85-2.12.33-6.94,1.14-6.94,1.14l-4.51-.41s-4.4-.81-5.22-.98c-.82-.16-4.08-1.3-4.08-1.3l-3.52-2.45,4.09,3.84s1.39,1.06.98,2.53-.66.98-.9,3.02c-.25,2.05-.9,4.01-.9,5.72s.41,4.27.41,5.73-.16,5.88-.16,5.88l.08,5.31c.84,1.03,1.87,1.43,1.87,1.43l1.21-.45.31-1.21c.1-1.03.49-1.85.38-3-.1-1.16.13-.98-.41-2.96s-.33-4.67-.33-4.67l.02-3.24-.25-5.98.72-1.98s.72-.77,1.77-.72,1.16.1,1.93.31c.77.2,3.1.51,3.57.41.46-.11,2.26-.44,2.26-.44l-.26,2.85-.03,4.57s.34,4.24.36,4.94c.03.69.31,5.49.31,5.49l-.15,6.27.39,1.51.94.53,1.38-.22s.18-.02.42-.66Z"/>
    </g>
  </g>
  <g id="MAKEUPREMOVER">
    <path class="cls-5" d="M386.47,417.67v57s-1.28,35.61,0,41.54,1.14,11.21,4.58,11.62,9.33,0,9.33,0l63.27.18s4.53-1.38,5.49-2.66,1.6-3.58,1.6-6.28v-101.41s-2.32-7.77-5.17-8.52l-2.84-.75s6.73.32-1.92,0-59.28-.24-59.28-.24c0,0-5.13-1.05-8.01.72s-7.05,3.65-7.05,8.8Z"/>
    <polygon class="cls-14" points="409.83 408.36 409.83 398.08 420.81 398.3 453.16 398.95 453.16 408.36 409.83 408.36"/>
    <polygon class="cls-14" points="420.82 390.43 440.45 390.43 440.45 398.08 420.81 398.3 420.82 390.43"/>
    <path class="cls-14" d="M428.57,389.76v-9.42s7.05-1.97,10.13,0,3.08,2.31,2.31,3.25-8.3-.6-8.99.43.09,5.74.09,5.74h-3.54Z"/>
    <polygon class="cls-7" points="386.72 440.44 470.99 440.44 470.99 495.43 386.15 495.43 386.72 440.44"/>
    <text class="cls-20" transform="translate(405.66 462.46)"><tspan x="0" y="0"> </tspan><tspan class="cls-24" x="2.54" y="0">M</tspan><tspan class="cls-23" x="12.07" y="0">AKEUP</tspan><tspan x="0" y="14.4">REMOVER</tspan></text>
  </g>
  <path class="cls-10" d="M219.54,211.25l-1.96-10.13-1.25-8.55-.45-7.19s-.09-2.73-1.24-4.55-2.77-5.09-5.79-4.44-5.9,4.4-5.9,4.4l-1.89,6.1-.15,6.45,1.9,7.12s1.5,5.48,3.03,7.72,3.15,4.77,4.39,6.26,4.25,1.34,4.25,1.34l5.06-4.52Z"/>
  <path class="cls-8" d="M219.92,212.88c-2.49,1.57-5.44,2.88-5.44,2.88,0,0-3.18,1.38-4.7,3.55s-1.27,4.6-1.51,5.94-.32,4.93,1.1,6.68,2.82,5.1,5.22,5.1,4.69.7,6.18,0,3.64-2.96,3.51-3.51-.84-3.12-.84-3.12c0,0-2.2,1.48-3.9,1.54s-3.31-.92-4.29-2.58-1.91-2.29-1.57-3.71,1.31-4.28,1.31-4.28c0,0,1.17-1.63,2.46-1.75s2.56-.16,2.56-.16l-.1-6.58Z"/>
  <path class="cls-10" d="M359.65,194.9l2.14-8.01,1.31-6.54s2.34-2.99,4.02-2.97,4.69.86,4.69.86l2.93,4.31,1.47,7.78s-.41,2.77-.69,6.25-1.31,7.2-2.57,9.41-2.91,5.12-4.21,6.85-1.69,2.84-3.35,3.48-4.11-.86-4.11-.86l-4.29-2.09,2.65-18.46Z"/>
  <path class="cls-8" d="M356.28,216.48l-1.02,2.91s1.22,1.83,2.53,1.49,3.63.5,3.63.5l.97,3.82-1.01,3.9-1.66,1.87-3.41,1.03-2.27-1.91-.27-3.01-1.48,8.46s1.45,2.94,3.9,2.91,6.2-1.22,6.2-1.22l3.68-2.61,2-3.95.76-4.7-.76-3.91-2.58-4.02-4.21-2.58-4.29-2.09-.71,3.11Z"/>
  <path class="cls-1" d="M209.55,187.29c1.52,2.47,2.25,1.04,2.25,3.93s.65,5.21,0,7.1-2.03,3.63.29,5.44"/>
  <path class="cls-1" d="M366.6,190.15s1.34,1.55,1.34,5.32-1.72,4.47-2.58,6.53,0,7.47,0,7.47"/>
  <path class="cls-6" d="M251.66,270.13s15.29,8.6,17.9,9.37,13.58,1.82,14.89,2.22,14.97-1.1,14.97-1.1c0,0,13.98-4.12,14.34-4.66s12.3-5.61,12.3-5.61l-.25,5.01-.97,3.27.04,5.26,2.14,18.56.32,3.98s7.91,11.76,8.5,12.49,5.03,5.19,5.03,5.19l9.02,10.53,2.58,4.11s-.3,13.21-1.85,16.06-11.64,10.23-12.86,10.33.17,1.9.17,1.9h-103.05s-7.81-7.06-9.21-8.67-6.71-8.99-7.14-11.14-.06-6.39,1.81-8.15,8.78-8.96,7.79-11.34,12.76-19.4,12.76-19.4c0,0,6.22-6.6,7-8.98s7.17-27.65,3.76-29.21Z"/>
  <g id="Hårbørste">
    <polygon class="cls-9" points="314.9 474.9 314.9 397.95 314.9 396.21 313.86 395.45 312.47 395.4 278.62 394.92 276.86 394.92 275.37 395.26 274.22 396.41 273.46 397.95 273.46 474.9 274.56 476.18 275.95 477.18 277.79 477.83 280.22 478.31 286.07 479.12 292.96 480.07 299.64 480.07 305.63 479.52 310.52 478.74 312.86 478.18 314.9 477.07 314.9 474.9"/>
    <g>
      <g>
        <path class="cls-19" d="M287.33,405.76c.76.96.23,2.63-1.21,2.76-4.82.16-17.88,0-23.25.06-.97-.04-3,.19-3.53-1-.35-.81.27-1.94.7-2.23,1.59-.53,5.07-.06,9.56-.21h13.72c1.1.08,3.12-.3,4.01.62Z"/>
        <path class="cls-19" d="M287.33,414.5c.76.97.23,2.64-1.21,2.76-4.82.17-17.88.01-23.25.06-.97-.04-3,.2-3.53-1-.35-.8.27-1.94.7-2.23,1.59-.52,5.07-.05,9.56-.21,4.16,0,10.32,0,13.61,0h.11c1.1.08,3.12-.3,4.01.62Z"/>
        <path class="cls-19" d="M287.33,423.25c.76.96.23,2.63-1.21,2.75-4.82.17-17.88,0-23.25.07-.97-.04-3,.19-3.53-1.01-.35-.8.27-1.93.7-2.22,1.59-.53,5.07-.06,9.56-.21h13.72c1.1.08,3.12-.3,4.01.62Z"/>
        <path class="cls-19" d="M287.33,431.99c.76.96.23,2.64-1.21,2.76-4.82.17-17.88,0-23.25.06-.97-.04-3,.2-3.53-1-.35-.81.27-1.94.7-2.23,1.59-.53,5.07-.06,9.56-.21h13.72c1.1.08,3.12-.3,4.01.62Z"/>
        <path class="cls-19" d="M287.33,440.73c.76.97.23,2.64-1.21,2.76-4.82.17-17.88,0-23.25.06-.97-.04-3,.2-3.53-1-.35-.8.27-1.94.7-2.22,1.59-.53,5.07-.06,9.56-.21h13.72c1.1.08,3.12-.31,4.01.61Z"/>
        <path class="cls-19" d="M287.33,448.82c.76.97.23,2.64-1.21,2.76-4.82.17-17.88.01-23.25.06-.97-.04-3,.2-3.53-1-.35-.8.27-1.94.7-2.23,1.59-.52,5.07-.05,9.56-.2,4.16,0,10.32,0,13.61,0h.11c1.1.07,3.12-.31,4.01.61Z"/>
        <path class="cls-19" d="M287.33,456.91c.76.97.23,2.64-1.21,2.76-4.82.17-17.88.01-23.25.06-.97-.04-3,.2-3.53-1-.35-.8.27-1.94.7-2.23,1.59-.52,5.07-.05,9.56-.21,4.16,0,10.32,0,13.61,0h.11c1.1.08,3.12-.3,4.01.62Z"/>
      </g>
      <g>
        <path class="cls-1" d="M283.21,405.14h-13.61c-4.49.15-7.97-.32-9.56.21-.43.29-1.05,1.42-.7,2.23.53,1.19,2.56.96,3.53,1,5.37-.06,18.43.1,23.25-.06,1.44-.13,1.97-1.8,1.21-2.76-.89-.92-2.91-.54-4.01-.62h-.11Z"/>
        <path class="cls-1" d="M283.21,413.88c-3.29,0-9.45,0-13.61,0-4.49.16-7.97-.31-9.56.21-.43.29-1.05,1.43-.7,2.23.53,1.2,2.56.96,3.53,1,5.37-.05,18.43.11,23.25-.06,1.44-.12,1.97-1.79,1.21-2.76-.89-.92-2.91-.54-4.01-.62h-.11Z"/>
        <path class="cls-1" d="M283.21,422.63h-13.61c-4.49.15-7.97-.32-9.56.21-.43.29-1.05,1.42-.7,2.22.53,1.2,2.56.97,3.53,1.01,5.37-.06,18.43.1,23.25-.07,1.44-.12,1.97-1.79,1.21-2.75-.89-.92-2.91-.54-4.01-.62h-.11Z"/>
        <path class="cls-1" d="M283.21,431.37h-13.61c-4.49.15-7.97-.32-9.56.21-.43.29-1.05,1.42-.7,2.23.53,1.2,2.56.96,3.53,1,5.37-.06,18.43.11,23.25-.06,1.44-.12,1.97-1.8,1.21-2.76-.89-.92-2.91-.54-4.01-.62h-.11Z"/>
        <path class="cls-1" d="M283.21,440.12h-13.61c-4.49.15-7.97-.32-9.56.21-.43.28-1.05,1.42-.7,2.22.53,1.2,2.56.96,3.53,1,5.37-.05,18.43.11,23.25-.06,1.44-.12,1.97-1.79,1.21-2.76-.89-.92-2.91-.53-4.01-.61h-.11Z"/>
        <path class="cls-1" d="M283.21,448.21c-3.29,0-9.45,0-13.61,0-4.49.15-7.97-.32-9.56.2-.43.29-1.05,1.43-.7,2.23.53,1.2,2.56.96,3.53,1,5.37-.05,18.43.11,23.25-.06,1.44-.12,1.97-1.79,1.21-2.76-.89-.92-2.91-.54-4.01-.61h-.11Z"/>
        <path class="cls-1" d="M283.21,456.29c-3.29,0-9.45,0-13.61,0-4.49.16-7.97-.31-9.56.21-.43.29-1.05,1.43-.7,2.23.53,1.2,2.56.96,3.53,1,5.37-.05,18.43.11,23.25-.06,1.44-.12,1.97-1.79,1.21-2.76-.89-.92-2.91-.54-4.01-.62h-.11Z"/>
      </g>
    </g>
    <g>
      <g>
        <path class="cls-19" d="M330.42,406.42c.76.96.23,2.63-1.21,2.76-4.82.16-17.88,0-23.25.06-.97-.04-3,.19-3.53-1-.35-.81.27-1.94.7-2.23,1.59-.53,5.07-.06,9.56-.21h13.72c1.1.08,3.12-.3,4.01.62Z"/>
        <path class="cls-19" d="M330.42,415.16c.76.97.23,2.64-1.21,2.76-4.82.17-17.88.01-23.25.06-.97-.04-3,.2-3.53-1-.35-.8.27-1.94.7-2.23,1.59-.52,5.07-.05,9.56-.21,4.16,0,10.32,0,13.61,0h.11c1.1.08,3.12-.3,4.01.62Z"/>
        <path class="cls-19" d="M330.42,423.91c.76.96.23,2.63-1.21,2.75-4.82.17-17.88,0-23.25.07-.97-.04-3,.19-3.53-1.01-.35-.8.27-1.93.7-2.22,1.59-.53,5.07-.06,9.56-.21h13.72c1.1.08,3.12-.3,4.01.62Z"/>
        <path class="cls-19" d="M330.42,432.65c.76.96.23,2.64-1.21,2.76-4.82.17-17.88,0-23.25.06-.97-.04-3,.2-3.53-1-.35-.81.27-1.94.7-2.23,1.59-.53,5.07-.06,9.56-.21h13.72c1.1.08,3.12-.3,4.01.62Z"/>
        <path class="cls-19" d="M330.42,441.39c.76.97.23,2.64-1.21,2.76-4.82.17-17.88,0-23.25.06-.97-.04-3,.2-3.53-1-.35-.8.27-1.94.7-2.22,1.59-.53,5.07-.06,9.56-.21h13.72c1.1.08,3.12-.31,4.01.61Z"/>
        <path class="cls-19" d="M330.42,449.48c.76.97.23,2.64-1.21,2.76-4.82.17-17.88.01-23.25.06-.97-.04-3,.2-3.53-1-.35-.8.27-1.94.7-2.23,1.59-.52,5.07-.05,9.56-.2,4.16,0,10.32,0,13.61,0h.11c1.1.07,3.12-.31,4.01.61Z"/>
        <path class="cls-19" d="M330.42,457.57c.76.97.23,2.64-1.21,2.76-4.82.17-17.88.01-23.25.06-.97-.04-3,.2-3.53-1-.35-.8.27-1.94.7-2.23,1.59-.52,5.07-.05,9.56-.21,4.16,0,10.32,0,13.61,0h.11c1.1.08,3.12-.3,4.01.62Z"/>
      </g>
      <g>
        <path class="cls-1" d="M326.3,405.8h-13.61c-4.49.15-7.97-.32-9.56.21-.43.29-1.05,1.42-.7,2.23.53,1.19,2.56.96,3.53,1,5.37-.06,18.43.1,23.25-.06,1.44-.13,1.97-1.8,1.21-2.76-.89-.92-2.91-.54-4.01-.62h-.11Z"/>
        <path class="cls-1" d="M326.3,414.54c-3.29,0-9.45,0-13.61,0-4.49.16-7.97-.31-9.56.21-.43.29-1.05,1.43-.7,2.23.53,1.2,2.56.96,3.53,1,5.37-.05,18.43.11,23.25-.06,1.44-.12,1.97-1.79,1.21-2.76-.89-.92-2.91-.54-4.01-.62h-.11Z"/>
        <path class="cls-1" d="M326.3,423.29h-13.61c-4.49.15-7.97-.32-9.56.21-.43.29-1.05,1.42-.7,2.22.53,1.2,2.56.97,3.53,1.01,5.37-.06,18.43.1,23.25-.07,1.44-.12,1.97-1.79,1.21-2.75-.89-.92-2.91-.54-4.01-.62h-.11Z"/>
        <path class="cls-1" d="M326.3,432.03h-13.61c-4.49.15-7.97-.32-9.56.21-.43.29-1.05,1.42-.7,2.23.53,1.2,2.56.96,3.53,1,5.37-.06,18.43.11,23.25-.06,1.44-.12,1.97-1.8,1.21-2.76-.89-.92-2.91-.54-4.01-.62h-.11Z"/>
        <path class="cls-1" d="M326.3,440.78h-13.61c-4.49.15-7.97-.32-9.56.21-.43.28-1.05,1.42-.7,2.22.53,1.2,2.56.96,3.53,1,5.37-.05,18.43.11,23.25-.06,1.44-.12,1.97-1.79,1.21-2.76-.89-.92-2.91-.53-4.01-.61h-.11Z"/>
        <path class="cls-1" d="M326.3,448.87c-3.29,0-9.45,0-13.61,0-4.49.15-7.97-.32-9.56.2-.43.29-1.05,1.43-.7,2.23.53,1.2,2.56.96,3.53,1,5.37-.05,18.43.11,23.25-.06,1.44-.12,1.97-1.79,1.21-2.76-.89-.92-2.91-.54-4.01-.61h-.11Z"/>
        <path class="cls-1" d="M326.3,456.95c-3.29,0-9.45,0-13.61,0-4.49.16-7.97-.31-9.56.21-.43.29-1.05,1.43-.7,2.23.53,1.2,2.56.96,3.53,1,5.37-.05,18.43.11,23.25-.06,1.44-.12,1.97-1.79,1.21-2.76-.89-.92-2.91-.54-4.01-.62h-.11Z"/>
      </g>
    </g>
    <path class="cls-17" d="M303.6,479.7c-1.41.13-3.44.37-5.85.37s-4.82-.32-6.83-.28-4.59-.08-4.59-.08"/>
    <path class="cls-2" d="M302.37,480.48c-3.13,4.32-3.68,14.02-3.61,16.47s-1.82,18.88-.29,22.37,5.57,10.79,5.36,13.93-2.51,6.91-4.5,6.98c-1.99.07-6.53,2.78-8.55,2.22-2.02-.56-4.33-1.81-5.73-4.18s-2.86-6.21-2.93-7.68.96-3.98,2.85-6.57,2.8-5.45,3.36-7.96.96-12.43.96-12.43c0,0-.04-14.08-.25-17.3s-.48-6.88-.48-6.88l13.81,1.02Z"/>
    <path class="cls-16" d="M292.72,524.88s-2.33-.25-2.89,1.01-1.67,4.72-.86,5.12,1.01,2.99,2.84,2.94,4.16-.2,4.67-.81.81-1.07.81-2.74-.1-3.14-.25-3.7-1.93-2.23-2.08-2.28-2.23.46-2.23.46Z"/>
  </g>
  <path class="cls-12" d="M218.66,348.15s.61-1.27,5.62-2.64c5.02-1.36,13.19-5.45,18.37-4.09,5.18,1.36,10.54-.27,16.58,1.36s14.53,2.18,18.33,3.27c3.8,1.09,23.36,0,24.76-.27,1.4-.27,3.85.18,9.85-1.14s10.05-1.86,15.52-1.59c5.47.27,14.74,1,17.19,1.59s7.32,2.5,7.32,2.5l-.67,5.76-1.59,4.59-6.15,5.19-5.74,5.26h-103.05c-3.94-2.22-6.86-6.33-6.86-6.33l-4.25-3.35-5.23-8.75"/>
  <path class="cls-13" d="M241.49,302.72l5.19,6.89s5.8,5.12,6.81,6.11,10.58,8.67,10.58,8.67l9.28,5.8,4.78,2.75,3.75,1.88,7.56-3.77,14.79-10.44,5.07-4.9s4.78-4.37,5.07-4.81,6.81-5.8,6.81-5.8l3.95-2.81"/>
  <path class="cls-13" d="M282.2,336.49s.1-.87.32-.97.84-.61.84-.61l.82-.08.65.83-.2,1.25-.54.61-1.01.71-.87.76-.32.33-.95-.87-.82-.98-.61-.7v-.7l.25-.62.5-.22h.64l.4.2.57.39.22.36"/>
  <path class="cls-14" d="M258.94,176.91l-.65.42v1s.35.31.65.31.97.31,1.01-.35-.71-1.07-1.4-1.27"/>
  <path class="cls-15" d="M255.3,172.73s-.17-.35-.52.38-.7.94-.84,1.67-.7,2.16-.7,2.75,2.61-5.09,2.61-5.09"/>
  <path class="cls-15" d="M326.75,172.73s.17-.35.52.38.7.94.84,1.67.7,2.16.7,2.75-2.61-5.09-2.61-5.09"/>
  <path class="cls-1" d="M154.74,8.13c-20.3,6.35-31.86,30.6-31.86,30.6,0,0-1.06,20.41,0,25.34s5.98,8.8,10.21,8.8,19.14,2.14,23.36,2.5,3.03,1.38,13.24-1.09,36.69,14.04,36.69,14.04l-16.63-27.41s4.22-14.08,5.63-17.95,6.69-14.08,6.69-18.3-3.17-15.84-3.17-15.84c0,0-19.36-7.39-20.41-7.39-.48,0-5.27-2.08-8.53,0-4.42,2.82-10.22,5.14-15.22,6.7Z"/>
  <text class="cls-21" transform="translate(132.95 58.92) rotate(-22.35)"><tspan x="0" y="0">OMG!!!</tspan></text>
  <g id="briller">
    <path class="cls-14" d="M104.22,453.31s-6.35.22-7.88-1.75-6.13-6.79-6.13-6.79l-6.79-7.22s-4.38-2.85-7.22-2.41-6.57-.22-7.66,1.97-7.01,8.76-7.01,8.76l-8.54,1.75-11.16,4.16-6.35,1.54-2.85,1.09,11.82,3.28s11.16,2.41,13.79,3.28,14.89,4.6,16.86,5.69,14.01,7.22,14.01,7.22h24.08s23.2-1.09,25.17-1.09,25.39,2.85,25.39,2.85l29.12,5.91,22.33-16.64s21.02-8.1,21.45-9.63,7.22-3.94,7.22-3.94c0,0,3.94,2.19,3.94,4.82s-1.97,10.95-1.97,11.82-2.19,5.47-2.41,6.35-3.72,4.6-5.03,3.94-3.06-3.72-3.06-3.72l3.28-3.5s1.75-4.82,1.75-5.69-.22-4.38-.22-4.38c0,0-2.41-1.31-3.28,0s-4.38,6.13-4.38,6.13c0,0-.88,4.16-1.97,4.38s-7.22,4.16-7.22,4.16c0,0-7.88,7.66-10.07,7.88s-16.86,7.66-18.61,8.32-3.58,4.97-3.58,4.97c0,0-5.67,2.16-6.21,3.38s-2.97,7.16-2.97,7.16c0,0-1.62,8.24-2.16,10.4s-1.76,5.67-3.78,7.97-5.93,4.46-7.01,5.27-9.86,3.38-12.83,3.65-7.16-1.35-10.94-1.35-17.96-3.51-18.77-3.92-8.64-5.13-9.32-5.54-10.8-11-11.48-12.59-3.65-7.8-4.46-9.69-5.54-8.1-6.21-8.91-4.05-5.27-5.4-5.54-3.65-2.03-5.27-1.35-3.92,3.11-4.46,5.13-3.11,9.18-3.92,11.75-6.08,7.56-7.97,8.91-5.67,3.78-8.64,3.78-11.21-.95-11.88-.95-10.94-4.19-10.94-4.19c0,0-10.8-7.02-12.83-9.18s-5.4-7.02-5.81-8.24-3.65-9.59-3.65-9.59l-2.3-8.51s-1.89-5.13-2.7-5.94l-4.19-4.19-2.57-.68-.54-12.02,6.35-3.38,45.37-17.42s14.85-4.73,17.15-4.59,12.02.68,12.02.68c0,0,7.83,4.73,8.91,5.13s12.56,4.86,13.77,5.81,5.13,2.84,5.27,4.86,1.35,6.08,0,7.16-6.5,3.22-6.5,3.22Z"/>
    <path class="cls-14" d="M21.09,461.34s-4.24.61-4.24,4.24.61,7.88,0,10.1,2.12,12.73,2.12,12.73l6.77,9.49,9.09,7.47,12.5,5.24s9.81,1.07,11.22,1.01,8.2-4.43,8.2-4.43c0,0,4.7-5.04,4.77-5.98s2.69-6.58,2.75-8.4.13-7.79,0-8.8-3.16-7.26-3.96-7.93-6.72-6.38-8.6-6.45-10.48-2.28-10.48-2.28l-10.82-1.95-10.88-3.09s-6.02-1.91-8.43-.98Z"/>
    <path class="cls-14" d="M109.12,484.22c-1.41,5.04-4.44,5.24-3.43,10.08s3.43,12.3,3.43,12.3l8.67,11.89,10.08,7.06,14.31,4.03,16.73,2.22s8.91-2.82,10-4.44,5.52-8.06,5.52-8.06c0,0,1.81-6.32,1.81-8.6s-.81-9.34-.81-9.94-5.24-8.47-5.24-8.47l-7.86-5.93-11.49-2.14-18.95-1.81h-13.51l-9.27,1.81Z"/>
    <polygon class="cls-14" points="1.9 451.84 11.05 454.07 33.4 459.24 47.7 462.84 63.92 467.89 84.1 477.02 92.03 478.94 120.75 477.62 156.43 478.94 182.63 484.11 189.36 485.43 192.72 486.15 192.88 481.55 162.34 475.46 138.37 472.79 115.22 473.79 90.47 473.88 78.15 468.26 59.56 461.39 49.74 458.04 32.64 454.4 8.41 449.87 1.9 451.84"/>
    <path class="cls-11" d="M181.73,486.15c3.74.45,5.02,1.14,5.02,1.14l-1.77,2.16h-3.25l-3.44-.98v-1.87l3.44-.45Z"/>
    <polygon class="cls-11" points="12.52 457.98 18.56 457.98 21.09 461.34 15.47 462.87 9.65 460.42 12.52 457.98"/>
  </g>
  <path class="cls-4" d="M264.2,249.81s-.22.11,1.75.66,3.73,1.97,5.59,2.19,6.03,1.13,6.03,1.13l25.73.36s-1.52.55,1.76-.53,7.45-2.39,7.45-2.39l1.65-1.42-6.93-4.02-11.93-2.54-10.51-.29-7.23.77-13.37,6.08Z"/>
  <polygon class="cls-14" points="234.11 174.44 230.87 171.01 228.49 168.48 228.08 166.66 230.39 167.1 232.85 169.41 236.46 172.06 234.11 174.44"/>
</svg>